<svg xmlns="http://www.w3.org/2000/svg" xmlns:xlink="http://www.w3.org/1999/xlink" width="2000" zoomAndPan="magnify" viewBox="0 0 1500 1499.999933" height="2000" preserveAspectRatio="xMidYMid meet" version="1.0"><defs><g/></defs><g fill="#e7e4db" fill-opacity="1"><g transform="translate(299.389673, 954.225451)"><g><path d="M 273.75 -68.6875 C 281.945312 -44.769531 290.660156 -19.3125 299.890625 7.6875 C 309.117188 34.6875 319.882812 61.515625 332.1875 88.171875 C 344.488281 114.828125 358.15625 140.285156 373.1875 164.546875 C 388.226562 188.816406 405.660156 210.347656 425.484375 229.140625 C 445.304688 247.941406 467.347656 262.976562 491.609375 274.25 C 515.878906 285.53125 543.394531 291.171875 574.15625 291.171875 L 574.15625 301.421875 C 524.25 301.421875 480.5 292.535156 442.90625 274.765625 C 405.320312 256.992188 372.34375 232.898438 343.96875 202.484375 C 315.601562 172.066406 290.65625 136.695312 269.125 96.375 C 247.601562 56.050781 228.125 12.992188 210.6875 -32.796875 C 193.257812 -78.597656 176.6875 -125.59375 160.96875 -173.78125 C 145.25 -221.96875 128.84375 -268.785156 111.75 -314.234375 C 94.664062 -359.691406 76.039062 -402.753906 55.875 -443.421875 C 35.707031 -484.097656 12.296875 -519.640625 -14.359375 -550.046875 C -41.015625 -580.460938 -71.941406 -604.382812 -107.140625 -621.8125 C -142.335938 -639.25 -183.175781 -647.96875 -229.65625 -647.96875 L -229.65625 -657.1875 C -178.394531 -657.1875 -132.257812 -648.472656 -91.25 -631.046875 C -50.238281 -613.617188 -13.671875 -590.207031 18.453125 -560.8125 C 50.578125 -531.425781 79.285156 -497.421875 104.578125 -458.796875 C 129.867188 -420.179688 152.425781 -379.515625 172.25 -336.796875 C 192.070312 -294.078125 209.84375 -250.675781 225.5625 -206.59375 C 241.28125 -162.507812 255.972656 -120.644531 269.640625 -81 C 273.054688 -89.195312 279.035156 -103.71875 287.578125 -124.5625 C 296.128906 -145.414062 306.039062 -169.171875 317.3125 -195.828125 C 328.59375 -222.484375 340.382812 -250.332031 352.6875 -279.375 C 364.988281 -308.425781 376.265625 -335.597656 386.515625 -360.890625 C 396.773438 -386.179688 405.148438 -407.710938 411.640625 -425.484375 C 418.140625 -443.253906 421.390625 -453.847656 421.390625 -457.265625 C 421.390625 -468.203125 417.113281 -477.257812 408.5625 -484.4375 C 400.019531 -491.613281 390.96875 -495.882812 381.40625 -497.25 L 484.953125 -497.25 C 470.597656 -493.832031 458.804688 -487 449.578125 -476.75 C 440.347656 -466.5 433 -454.878906 427.53125 -441.890625 Z M 273.75 -68.6875 "/></g></g></g><g fill="#e7e4db" fill-opacity="1"><g transform="translate(744.353775, 954.225451)"><g><path d="M 423.4375 -137.390625 C 423.4375 -112.097656 418.140625 -90.734375 407.546875 -73.296875 C 396.953125 -55.867188 383.28125 -41.6875 366.53125 -30.75 C 349.78125 -19.820312 330.8125 -11.960938 309.625 -7.171875 C 288.4375 -2.390625 266.90625 0 245.03125 0 L 29.734375 0 C 45.453125 -4.101562 55.703125 -12.644531 60.484375 -25.625 C 65.273438 -38.613281 67.671875 -51.941406 67.671875 -65.609375 L 67.671875 -441.890625 C 67.671875 -454.878906 64.9375 -467.351562 59.46875 -479.3125 C 54 -491.269531 44.085938 -498.957031 29.734375 -502.375 L 167.125 -502.375 C 152.082031 -498.957031 141.828125 -491.097656 136.359375 -478.796875 C 130.890625 -466.492188 128.15625 -453.507812 128.15625 -439.84375 L 128.15625 -272.71875 L 215.3125 -272.71875 C 237.863281 -272.71875 257.679688 -279.039062 274.765625 -291.6875 C 291.859375 -304.332031 306.039062 -320.222656 317.3125 -339.359375 C 328.59375 -358.503906 336.96875 -379.007812 342.4375 -400.875 C 347.90625 -422.75 350.640625 -443.253906 350.640625 -462.390625 C 350.640625 -495.203125 344.828125 -524.765625 333.203125 -551.078125 C 321.585938 -577.390625 305.695312 -599.773438 285.53125 -618.234375 C 265.375 -636.691406 241.453125 -650.875 213.765625 -660.78125 C 186.085938 -670.695312 156.1875 -675.65625 124.0625 -675.65625 C 78.257812 -675.65625 35.707031 -668.644531 -3.59375 -654.625 C -42.894531 -640.613281 -76.894531 -620.617188 -105.59375 -594.640625 C -134.300781 -568.671875 -156.859375 -536.890625 -173.265625 -499.296875 C -189.671875 -461.710938 -197.875 -419.335938 -197.875 -372.171875 C -197.875 -337.992188 -193.085938 -303.472656 -183.515625 -268.609375 C -173.953125 -233.753906 -159.429688 -202.144531 -139.953125 -173.78125 C -120.472656 -145.414062 -96.378906 -122.347656 -67.671875 -104.578125 C -38.960938 -86.804688 -5.128906 -77.921875 33.828125 -77.921875 L 42.03125 -78.953125 L 45.109375 -78.953125 L 36.90625 -68.6875 C -0.6875 -68.6875 -36.226562 -76.71875 -69.71875 -92.78125 C -103.207031 -108.84375 -132.765625 -130.375 -158.390625 -157.375 C -184.023438 -184.375 -204.363281 -215.300781 -219.40625 -250.15625 C -234.445312 -285.019531 -241.96875 -320.90625 -241.96875 -357.8125 C -241.96875 -411.8125 -232.394531 -459.144531 -213.25 -499.8125 C -194.113281 -540.488281 -168.140625 -574.664062 -135.328125 -602.34375 C -102.523438 -630.019531 -63.910156 -650.863281 -19.484375 -664.875 C 24.941406 -678.894531 72.445312 -685.90625 123.03125 -685.90625 C 156.519531 -685.90625 190.351562 -681.117188 224.53125 -671.546875 C 258.707031 -661.972656 289.460938 -647.617188 316.796875 -628.484375 C 344.140625 -609.347656 366.351562 -585.597656 383.4375 -557.234375 C 400.53125 -528.867188 409.078125 -495.890625 409.078125 -458.296875 C 409.078125 -413.179688 397.796875 -374.734375 375.234375 -342.953125 C 352.679688 -311.171875 320.5625 -287.421875 278.875 -271.703125 C 298.007812 -269.648438 316.289062 -265.546875 333.71875 -259.390625 C 351.15625 -253.242188 366.535156 -244.703125 379.859375 -233.765625 C 393.191406 -222.828125 403.785156 -209.492188 411.640625 -193.765625 C 419.503906 -178.046875 423.4375 -159.253906 423.4375 -137.390625 Z M 128.15625 -8.203125 L 230.6875 -8.203125 C 271.007812 -8.203125 301.9375 -19.820312 323.46875 -43.0625 C 345 -66.300781 355.765625 -97.742188 355.765625 -137.390625 C 355.765625 -180.453125 343.460938 -212.40625 318.859375 -233.25 C 294.253906 -254.09375 261.101562 -264.515625 219.40625 -264.515625 L 128.15625 -264.515625 Z M 128.15625 -8.203125 "/></g></g></g></svg>